<svg width="76" height="70" viewBox="0 0 76 70" fill="none" xmlns="http://www.w3.org/2000/svg">
<path d="M54.3158 63.3934H56.6774C56.6863 63.5967 56.7017 63.7812 56.7017 63.9658C56.7042 65.0366 56.7115 66.1065 56.6977 67.1773C56.6936 67.4878 56.7813 67.6049 57.1102 67.5984C58.1253 67.5789 59.1404 67.5919 60.1556 67.5895C60.2603 67.5895 60.3651 67.5699 60.4901 67.5569V49.4866H54.2793C54.2793 48.7077 54.2736 47.9817 54.2882 47.2557C54.2898 47.189 54.4068 47.1053 54.488 47.067C54.5546 47.0353 54.6471 47.0581 54.7283 47.0581C56.9616 47.0581 59.1949 47.0573 61.4281 47.0581C62.492 47.0589 62.9224 47.4971 62.9224 48.5695C62.9224 54.7217 62.9224 60.873 62.9224 67.0252V67.561C63.0872 67.5716 63.2285 67.5878 63.3706 67.5886C64.4532 67.5911 65.5373 67.6171 66.619 67.5813C67.57 67.5496 67.9996 68.1716 68.0207 68.7708C68.0459 69.4944 67.4693 69.9911 66.6044 69.9928C63.5729 69.9968 60.5405 69.9952 57.509 69.9952C38.8714 69.9952 20.2347 69.9952 1.59719 69.9936C1.43477 69.9936 1.27154 69.9976 1.11075 69.9781C0.390423 69.8911 -0.0407985 69.3822 0.00305451 68.6797C0.042847 68.0464 0.539848 67.5943 1.23662 67.5927C3.53728 67.5862 5.83875 67.5903 8.13941 67.5903C9.07332 67.5903 10.008 67.5724 10.9411 67.5984C11.3366 67.6098 11.4812 67.5203 11.4698 67.0886C11.4373 65.8715 11.4584 64.6536 11.4584 63.404H13.8622V67.5618H17.1398V63.3975H19.5631V67.5911C19.7548 67.5911 19.8993 67.5911 20.0447 67.5911C20.9786 67.5911 21.9133 67.5659 22.8456 67.6017C23.2801 67.6187 23.3548 67.4642 23.3523 67.0716C23.3361 64.4561 23.3442 61.8414 23.3442 59.2258C23.3442 45.6759 23.3442 32.1252 23.3442 18.5753C23.3442 18.4396 23.3385 18.3038 23.3499 18.1688C23.4132 17.4623 23.855 17.0241 24.5656 17.0086C25.4451 16.9891 26.3246 17.0029 27.2049 16.9997C27.3633 16.9997 27.5216 16.9859 27.7165 16.9769C27.7165 16.7501 27.7165 16.5623 27.7165 16.3745C27.7165 15.0468 27.7133 13.7183 27.7181 12.3906C27.7214 11.5191 28.2087 11.0321 29.0825 11.0313C32.5477 11.028 36.0121 11.0296 39.4772 11.0296C39.6494 11.0296 39.8208 11.0296 40.0181 11.0296V8.28079C39.8443 8.27184 39.686 8.25558 39.5276 8.25558C37.2131 8.25396 34.8987 8.25558 32.5842 8.24989C32.3568 8.24989 32.1181 8.24095 31.9061 8.17103C31.3929 8.00355 31.0591 7.4393 31.1289 6.92547C31.2069 6.35554 31.6357 5.90187 32.2017 5.88155C33.121 5.84984 34.0419 5.86528 34.962 5.86122C35.1488 5.86041 35.3356 5.86122 35.5589 5.86122C35.5678 5.66935 35.58 5.52625 35.58 5.38235C35.5816 4.02703 35.5792 2.67253 35.5825 1.31721C35.5841 0.537521 36.0632 0.0090539 36.7657 0.000110608C37.4844 -0.00883269 37.9854 0.525326 37.9887 1.32534C37.9944 2.66684 37.9903 4.00833 37.9903 5.34983V5.83439C38.1625 5.84415 38.3062 5.85878 38.45 5.85878C39.3026 5.86122 40.1553 5.85797 41.008 5.86203C42.002 5.86691 42.4471 6.31082 42.4487 7.29784C42.4503 8.51656 42.4487 9.73529 42.4487 11.028C42.6501 11.028 42.832 11.028 43.0139 11.028C43.4606 11.028 43.9072 11.028 44.3539 11.028C45.4096 11.0288 45.8489 11.4735 45.8497 12.5427C45.8514 13.8573 45.8497 15.1712 45.8506 16.4859C45.8506 16.633 45.8506 16.7802 45.8506 16.9672C46.0276 16.9794 46.1713 16.9964 46.3143 16.9972C47.0857 16.9997 47.8572 16.9972 48.6287 16.9972C49.8371 16.9972 50.2131 17.3664 50.2139 18.5672C50.2156 24.0958 50.2139 29.6244 50.2139 35.1529C50.2139 45.7621 50.2139 56.3713 50.2139 66.9805C50.2139 67.5895 50.2155 67.5895 50.8311 67.5895C51.8194 67.5895 52.8078 67.5708 53.7953 67.5984C54.1956 67.6098 54.3385 67.5122 54.3264 67.0846C54.2955 66.0146 54.3158 64.9439 54.3158 63.8731C54.3158 63.726 54.3158 63.5788 54.3158 63.391V63.3934ZM25.744 43.4832C25.744 51.3265 25.744 59.1698 25.744 67.0138C25.744 67.3981 25.9332 67.5905 26.3116 67.5911C33.307 67.5911 40.3023 67.5911 47.2985 67.5911C47.6493 67.5911 47.8248 67.4117 47.8248 67.0529C47.8248 51.3663 47.8248 35.679 47.8248 19.9924C47.8248 19.593 47.6282 19.393 47.2352 19.3924C40.2528 19.3924 33.2712 19.3924 26.2889 19.3924C25.9256 19.3924 25.744 19.5791 25.744 19.9526C25.744 27.7959 25.744 35.6399 25.744 43.4832ZM36.7852 13.4386C34.7021 13.4386 32.6191 13.4435 30.5361 13.4329C30.2308 13.4313 30.1057 13.4988 30.1138 13.8354C30.1366 14.7557 30.1309 15.6769 30.1163 16.5972C30.1114 16.885 30.1772 17.0062 30.4939 17.0054C34.6867 16.9972 38.8796 16.9972 43.0724 17.0054C43.385 17.0054 43.4598 16.8899 43.4541 16.5989C43.4386 15.6915 43.4297 14.7842 43.4565 13.8777C43.4679 13.5061 43.3379 13.4281 42.9928 13.4305C40.9236 13.4451 38.8544 13.4378 36.7844 13.4378L36.7852 13.4386Z" fill="white"/>
<path d="M19.5437 37.4896V39.8547C19.3772 39.8637 19.2083 39.8807 19.0402 39.8807C15.2786 39.8824 11.517 39.8824 7.75536 39.8824C7.40507 39.8824 7.22993 40.0615 7.22993 40.4198C7.22993 48.1956 7.22993 55.9705 7.22993 63.7463C7.22993 63.9195 7.22993 64.0919 7.22993 64.291H4.85294C4.84482 64.1366 4.8302 63.9927 4.8302 63.8479C4.82939 55.5713 4.82939 47.2947 4.8302 39.0173C4.8302 37.8994 5.23462 37.4904 6.33907 37.4896C10.5603 37.4888 14.7824 37.4896 19.0036 37.4896H19.5445H19.5437Z" fill="white"/>
<path d="M7.29886 11.1711C7.85351 11.1711 8.40899 11.1524 8.96283 11.1776C9.27955 11.1922 9.42573 11.0995 9.54348 10.7841C10.6828 7.72302 14.5452 6.83275 16.9165 9.07264C17.4476 9.57428 17.8382 10.1727 18.0664 10.8654C18.1444 11.1011 18.2564 11.1841 18.5 11.1768C19.0271 11.1605 19.5558 11.167 20.0828 11.1743C20.7439 11.1841 21.2376 11.6361 21.2766 12.2573C21.3196 12.9329 20.9233 13.5012 20.2542 13.5345C19.1619 13.5882 18.0631 13.5866 16.9709 13.5345C16.3115 13.5036 15.9679 13.0158 15.9233 12.2638C15.8616 11.2231 15.0738 10.3637 14.0798 10.2532C12.9673 10.1288 12.0187 10.7515 11.7329 11.8093C11.6736 12.0288 11.6744 12.2638 11.6387 12.4906C11.538 13.124 11.1384 13.5467 10.5009 13.5565C8.83696 13.5833 7.17217 13.5849 5.50819 13.5581C4.82035 13.5467 4.32497 12.9817 4.34365 12.3426C4.36314 11.667 4.8772 11.1808 5.59184 11.1727C6.1603 11.1662 6.72877 11.1711 7.29642 11.1711H7.29886Z" fill="white"/>
<path d="M56.9868 32.6293C56.1893 32.6293 55.391 32.6317 54.5935 32.6277C53.848 32.6236 53.3193 32.1407 53.3039 31.4585C53.2885 30.7894 53.8155 30.2479 54.5513 30.2349C55.6866 30.2154 56.8235 30.2154 57.9588 30.2366C58.2991 30.2431 58.468 30.1528 58.6231 29.826C59.3313 28.3341 60.5291 27.5267 62.1866 27.5243C63.8457 27.521 65.0435 28.3292 65.7525 29.8211C65.9084 30.1488 66.0708 30.2634 66.4152 30.2349C66.7782 30.2049 67.1452 30.2187 67.5099 30.2325C68.2448 30.2609 68.7751 30.7837 68.7621 31.4528C68.7491 32.1366 68.2229 32.6236 67.4782 32.6277C66.6401 32.6326 65.8012 32.6334 64.9631 32.6277C64.2631 32.6228 63.8343 32.2399 63.7247 31.5415C63.693 31.3415 63.6841 31.1341 63.6224 30.9447C63.3925 30.2431 62.7291 29.8463 61.9681 29.9341C61.2827 30.0138 60.7411 30.5951 60.6631 31.335C60.5616 32.296 60.1929 32.6277 59.2184 32.6301C58.4745 32.6317 57.7306 32.6301 56.9876 32.6301L56.9868 32.6293Z" fill="white"/>
<path d="M69.0115 37.1758C68.145 37.1758 67.2793 37.1791 66.4128 37.175C65.651 37.1718 65.1402 36.7035 65.1289 36.0091C65.1175 35.2896 65.6202 34.775 66.39 34.7701C68.1628 34.7579 69.9356 34.7571 71.7084 34.7701C72.445 34.7758 72.9729 35.3107 72.9647 35.9864C72.9566 36.6717 72.4279 37.1701 71.6897 37.1742C70.7964 37.1799 69.9031 37.1758 69.0098 37.1758H69.0115Z" fill="white"/>
<path d="M72.1623 67.5919C72.7162 67.5919 73.2692 67.5854 73.8231 67.5943C74.5109 67.6057 75.0047 68.0602 75.0371 68.6968C75.0713 69.3805 74.6563 69.9171 73.9563 69.9667C73.1904 70.0212 72.419 69.9911 71.6499 69.9952C71.2853 69.9976 70.9206 70.0058 70.5568 69.9928C69.7788 69.9667 69.2737 69.4781 69.2786 68.7708C69.2843 68.0634 69.7959 67.5984 70.5836 67.5919C71.1099 67.5878 71.6369 67.5911 72.1631 67.5919H72.1623Z" fill="white"/>
<path d="M17.174 44.402H19.5412V49.0809H17.174V44.402Z" fill="white"/>
<path d="M13.8436 49.0899H11.4845V44.4036H13.8436V49.0899Z" fill="white"/>
<path d="M11.473 58.5543V53.9014H13.8386V58.5543H11.473Z" fill="white"/>
<path d="M17.2 53.8892H19.5323V58.5519H17.2V53.8892Z" fill="white"/>
<path d="M54.3175 53.8908H56.6701C56.6815 54.0315 56.7018 54.1616 56.7018 54.2908C56.7042 55.577 56.6945 56.8641 56.7091 58.1503C56.7132 58.473 56.6336 58.6153 56.2828 58.5991C55.7297 58.5739 55.1743 58.5893 54.6196 58.5926C54.4296 58.5942 54.3143 58.5454 54.3151 58.3218C54.3199 56.8608 54.3175 55.399 54.3175 53.89V53.8908Z" fill="white"/>
<path d="M59.8795 35.892C60.2579 35.892 60.6371 35.8822 61.0156 35.8944C61.6539 35.9148 62.1387 36.392 62.1817 37.0237C62.2207 37.6018 61.8204 38.1945 61.217 38.2384C60.3042 38.3051 59.38 38.3091 58.468 38.24C57.833 38.1921 57.4456 37.5774 57.5114 36.9465C57.5739 36.3505 58.0693 35.9066 58.7027 35.8928C59.095 35.8839 59.4872 35.8912 59.8795 35.892Z" fill="white"/>
<path d="M43.8454 24.0479V26.4032H29.7256V24.0479H43.8454Z" fill="white"/>
<path d="M29.6932 33.6579C29.6932 32.918 29.6932 32.2155 29.6932 31.5139C29.6932 31.2041 29.9271 31.2757 30.1017 31.2757C32.0759 31.2724 34.0493 31.2732 36.0235 31.2732C38.4979 31.2732 40.9723 31.2798 43.446 31.2667C43.7838 31.2651 43.8918 31.3594 43.8796 31.6985C43.8553 32.3432 43.8723 32.9895 43.8723 33.6587H29.6924L29.6932 33.6579Z" fill="white"/>
<path d="M43.8422 45.854V48.1988C43.6806 48.2061 43.5483 48.2183 43.4167 48.2183C38.9957 48.2191 34.5746 48.2134 30.1536 48.228C29.7679 48.2297 29.6647 48.1077 29.6826 47.7459C29.7078 47.2191 29.698 46.6906 29.6866 46.163C29.681 45.9101 29.7532 45.806 30.0293 45.806C34.5446 45.8133 39.0606 45.8109 43.5759 45.8133C43.6652 45.8133 43.7545 45.8402 43.8422 45.854Z" fill="white"/>
<path d="M43.8398 55.4681H43.3826C38.9738 55.4681 34.5641 55.4632 30.1553 55.477C29.7752 55.4778 29.6672 55.3672 29.6818 55.0006C29.707 54.3688 29.6891 53.7355 29.6891 53.0802H43.8398V55.4673V55.4681Z" fill="white"/>
<path d="M29.6939 40.9393C29.6939 40.1888 29.6825 39.488 29.7085 38.788C29.7117 38.7051 29.9148 38.5652 30.0301 38.5612C30.6513 38.5384 31.275 38.549 31.8971 38.549C35.7131 38.549 39.5291 38.549 43.3452 38.549C43.696 38.549 43.8719 38.7276 43.873 39.0847C43.8738 39.5587 43.8552 40.0344 43.8795 40.5067C43.8966 40.8409 43.7877 40.949 43.4475 40.9458C41.5805 40.9311 39.7127 40.9401 37.8457 40.9401C35.2884 40.9401 32.7303 40.9401 30.173 40.9393C30.0277 40.9393 29.8831 40.9393 29.6955 40.9393H29.6939Z" fill="white"/>
<path d="M29.7102 62.7235V60.3584C29.8653 60.3487 30.0074 60.3332 30.1503 60.3332C34.5486 60.3316 38.9477 60.3324 43.346 60.3332C43.8714 60.3332 43.8722 60.3348 43.8731 60.8723C43.8731 61.3462 43.8544 61.8219 43.8787 62.2942C43.8966 62.63 43.7862 62.7341 43.4467 62.7316C41.2541 62.7178 39.0614 62.7243 36.8688 62.7243C34.6623 62.7243 32.4567 62.7243 30.2502 62.7243C30.0902 62.7243 29.9294 62.7243 29.7094 62.7243L29.7102 62.7235Z" fill="white"/>
</svg>
