<svg width="70" height="70" viewBox="0 0 70 70" fill="none" xmlns="http://www.w3.org/2000/svg">
<path d="M58.7562 7.83199C59.5478 7.0099 60.3344 6.1821 61.1339 5.36716C61.7682 4.72093 62.4132 4.0847 63.0639 3.45563C64.2488 2.30971 65.6619 1.95657 67.2136 2.45983C68.7733 2.96523 69.7072 4.10043 69.9518 5.72459C70.1606 7.11213 69.6957 8.29951 68.6982 9.28601C65.4187 12.5279 62.145 15.7748 58.8634 19.0138C58.6889 19.1861 58.6081 19.3534 58.6088 19.6021C58.6153 25.4511 58.6153 31.3008 58.6074 37.1498C58.6074 37.4071 58.6911 37.5101 58.9292 37.6037C64.8438 39.9313 68.5473 44.179 69.6857 50.444C70.9829 57.5876 67.544 64.5489 61.1925 68.0059C59.0737 69.159 56.8039 69.821 54.389 69.9654C49.5593 70.2542 45.3766 68.7351 41.8047 65.4861C41.676 65.3688 41.4457 65.3138 41.262 65.3138C32.8131 65.3052 24.3634 65.3066 15.9145 65.3066C13.9123 65.3066 11.9107 65.3023 9.90842 65.3116C9.58663 65.3131 9.33849 65.2151 9.11323 64.9892C6.21922 62.0869 3.32164 59.1874 0.424054 56.2894C0.130148 55.9963 0 55.6603 0 55.235C0.007151 37.1634 0.0057208 19.091 0.0057208 1.01939C0.0057208 0.209454 0.213815 0 1.01759 0C19.8819 0 38.7462 0 57.6113 0C58.3986 0 58.6131 0.213028 58.6131 0.992224C58.6131 3.11249 58.6131 5.23348 58.6131 7.35375C58.6131 7.48171 58.6131 7.60967 58.6131 7.73692C58.661 7.76837 58.709 7.79982 58.7569 7.83128L58.7562 7.83199ZM1.42877 1.41542V54.8297C1.58109 54.8297 1.7098 54.8297 1.83852 54.8297C4.37712 54.8297 6.91501 54.8297 9.45362 54.8304C10.1902 54.8304 10.4097 55.0534 10.4161 55.7911C10.4369 58.3761 10.4583 60.961 10.4812 63.5459C10.4819 63.6596 10.4919 63.7733 10.4969 63.8726H40.2043C35.7879 57.5947 35.2136 51.1288 39.1202 44.4042C43.5181 37.9769 49.6136 35.6957 57.1808 36.9918V20.7573C57.1472 20.7345 57.1129 20.7123 57.0793 20.6894C56.9276 20.8724 56.7903 21.0697 56.6223 21.2363C49.2339 28.5579 41.8441 35.878 34.4463 43.191C34.2433 43.3912 33.9737 43.5563 33.7041 43.6514C31.4958 44.4328 29.279 45.1898 27.0679 45.9633C26.7411 46.0776 26.4422 46.1205 26.1748 45.856C25.9066 45.5901 25.951 45.2856 26.0582 44.961C26.8034 42.7035 27.5349 40.4417 28.2922 38.1885C28.3866 37.909 28.5654 37.6294 28.7756 37.4207C34.525 31.7118 40.2837 26.0123 46.0395 20.3106C46.1261 20.2248 46.2062 20.1326 46.3442 19.9839C46.1225 19.9839 45.9931 19.9839 45.8636 19.9839C44.3977 19.9839 42.9317 19.9839 41.4665 19.9839C41.3592 19.9839 41.2512 19.9903 41.1447 19.9782C40.7714 19.9353 40.4932 19.6443 40.4854 19.2955C40.4775 18.9359 40.7664 18.6299 41.1583 18.5906C41.2648 18.5799 41.3728 18.5863 41.4801 18.5863C43.4702 18.5863 45.4603 18.592 47.4504 18.5763C47.6378 18.5749 47.8638 18.4791 48.0039 18.3519C48.488 17.9115 48.9436 17.4383 49.4069 16.9757C49.4763 16.9064 49.5342 16.8249 49.6415 16.6955C49.4527 16.6955 49.3361 16.6955 49.2196 16.6955C46.7411 16.6955 44.2618 16.6955 41.7833 16.6955C41.5809 16.6955 41.3771 16.7055 41.1754 16.6905C40.7786 16.6605 40.4889 16.3638 40.4854 16.0028C40.4818 15.6411 40.7693 15.3409 41.1633 15.303C41.2934 15.2908 41.425 15.298 41.5566 15.298C44.6072 15.298 47.6585 15.2951 50.7091 15.303C50.9766 15.303 51.1732 15.2372 51.3685 15.0421C53.232 13.182 55.1041 11.3298 56.9813 9.48331C57.1586 9.30889 57.2208 9.13232 57.2201 8.88855C57.2123 6.52952 57.2151 4.1712 57.2151 1.81217C57.2151 1.68564 57.2151 1.55839 57.2151 1.41471H1.42877V1.41542ZM60.0827 15.8641C58.8098 14.5946 57.5669 13.3543 56.3062 12.0968C47.587 20.7338 38.8378 29.4014 30.1329 38.024C31.4022 39.2936 32.6436 40.5353 33.9029 41.7942C42.6135 33.1666 51.357 24.5068 60.0827 15.8641ZM53.2399 37.9997C44.7495 38.0183 37.9074 44.8838 37.9389 53.3528C37.9704 61.8246 44.8217 68.645 53.2842 68.6271C61.7431 68.6093 68.5909 61.7452 68.5802 53.2941C68.5695 44.8545 61.6752 37.9812 53.2399 37.9997ZM65.8936 10.1138C66.5944 9.41254 67.3266 8.74415 67.9817 8.00713C68.9234 6.94771 68.809 5.34142 67.7829 4.36135C66.776 3.40058 65.1856 3.37985 64.153 4.33919C63.5252 4.92252 62.9288 5.54015 62.3188 6.1435C62.2451 6.21641 62.1793 6.29719 62.1393 6.34151C63.3921 7.60038 64.6243 8.83851 65.8936 10.1138ZM2.54075 56.2501C4.6982 58.4068 6.905 60.6136 9.02313 62.731V56.2501H2.54075ZM57.4625 11.0253C58.7004 12.2627 59.9411 13.5037 61.1553 14.7168C61.5958 14.2693 62.0685 13.7903 62.4868 13.3657C61.2697 12.1505 60.0276 10.9109 58.7862 9.67061C58.3586 10.1081 57.8945 10.5835 57.4625 11.0253ZM29.3412 39.4245C28.8192 41.0193 28.3022 42.5991 27.7587 44.259C29.412 43.6857 30.9745 43.1439 32.5263 42.6049C31.4594 41.5397 30.4189 40.501 29.3405 39.4237L29.3412 39.4245ZM59.9418 8.61119C61.1417 9.81644 62.3824 11.0624 63.6095 12.2949C63.9842 11.9003 64.3818 11.4821 64.7508 11.0932C63.5488 9.89221 62.3123 8.65765 61.0831 7.42953C60.7084 7.81698 60.3144 8.22588 59.9418 8.61119Z" fill="white"/>
<path d="M45.5397 6.00476C48.1004 6.00476 50.6612 6.00476 53.222 6.00476C53.9528 6.00476 54.1788 6.2328 54.1788 6.96982C54.1788 7.98206 54.1788 8.9943 54.1788 10.0058C54.1781 10.7457 53.9528 10.9759 53.227 10.9766C48.0933 10.9766 42.9596 10.9766 37.8266 10.9766C37.143 10.9766 36.907 10.7378 36.9063 10.0473C36.9048 8.9993 36.9041 7.95204 36.9063 6.90405C36.9077 6.24924 37.1565 6.00548 37.8223 6.00548C40.3952 6.00405 42.9674 6.00548 45.5404 6.00548L45.5397 6.00476ZM38.3229 9.55546H52.7607V7.42661H38.3229V9.55546Z" fill="white"/>
<path d="M25.6913 55.9291C25.4346 55.6453 25.2715 55.458 25.1006 55.2786C23.4552 53.5486 23.8256 51.3483 25.1164 49.9707C25.9194 49.1136 27.1 48.8456 28.1276 49.2802C29.2518 49.7556 29.8003 50.6549 29.8653 51.8465C29.9325 53.0854 29.417 54.1355 28.7255 55.1177C28.6704 55.1956 28.6103 55.2693 28.5524 55.3451C28.5023 55.4108 28.453 55.4766 28.3457 55.6188C28.7612 55.6946 29.1216 55.7718 29.4863 55.824C30.5876 55.982 31.6688 55.8283 32.7443 55.5953C33.1934 55.498 33.556 55.6896 33.6511 56.0613C33.7576 56.4788 33.5173 56.8341 33.0382 56.9435C31.121 57.3817 29.2189 57.4003 27.3396 56.7347C27.2187 56.6918 27.0357 56.7197 26.9191 56.7833C25.1485 57.7484 23.4073 57.7034 21.7153 56.6139C21.0861 56.2086 20.5175 55.7089 19.8918 55.2979C19.4485 55.0069 18.9787 54.7203 18.4788 54.558C17.5556 54.2578 16.7197 54.543 15.9845 55.1435C15.391 55.6274 14.9863 56.2558 14.6459 56.9306C14.4943 57.2316 14.249 57.3645 13.9157 57.3252C13.6075 57.2887 13.4166 57.1036 13.3508 56.8098C13.3236 56.6897 13.3222 56.5389 13.3716 56.4309C14.0316 54.9855 14.9734 53.8017 16.5344 53.272C17.8438 52.8273 19.0766 53.0918 20.2093 53.8374C20.805 54.2299 21.3685 54.6717 21.9427 55.097C22.6307 55.606 23.3558 56.0499 24.2375 56.0713C24.7002 56.0828 25.1664 55.9848 25.6913 55.9305V55.9291ZM28.4938 52.1382C28.4816 51.9552 28.4809 51.8237 28.463 51.6943C28.3214 50.6842 27.2502 50.1344 26.4364 50.6849C25.6899 51.1896 25.348 51.9559 25.401 52.8352C25.4582 53.7759 26.0589 54.4114 26.8147 54.9054C26.8784 54.9469 27.0371 54.9412 27.0857 54.8918C27.8538 54.1091 28.4001 53.2112 28.4938 52.1389V52.1382Z" fill="white"/>
<path d="M15.7751 7.40304C12.4992 7.40304 9.22406 7.40304 5.94819 7.40304C5.88884 7.40304 5.82877 7.40304 5.76942 7.40304C5.21235 7.40018 4.87268 7.13425 4.87268 6.70319C4.87268 6.27356 5.2145 6.00549 5.77085 6.00549C12.4527 6.00549 19.1353 6.00549 25.8172 6.00549C26.4994 6.00549 26.8834 6.458 26.646 6.97985C26.4909 7.32012 26.1977 7.40519 25.8516 7.40447C24.1246 7.4009 22.3976 7.40304 20.6699 7.40376C19.0381 7.40376 17.4062 7.40376 15.7744 7.40376L15.7751 7.40304Z" fill="white"/>
<path d="M23.6555 29.1348C20.3918 29.1348 17.1281 29.1348 13.8644 29.1348C13.7571 29.1348 13.6491 29.1405 13.5433 29.1291C13.1693 29.0876 12.8911 28.7981 12.8825 28.4492C12.8732 28.0897 13.1607 27.7837 13.5519 27.7423C13.6463 27.7322 13.7421 27.738 13.8372 27.738C20.3646 27.738 26.8921 27.738 33.4195 27.738C33.5389 27.738 33.659 27.7308 33.7763 27.7444C34.1525 27.7859 34.4292 28.0747 34.4378 28.4235C34.4464 28.7824 34.1589 29.0905 33.7677 29.1305C33.6262 29.1448 33.4824 29.1369 33.3394 29.1369C30.1114 29.1369 26.8835 29.1369 23.6555 29.1369V29.1348Z" fill="white"/>
<path d="M7.94613 15.155C8.66052 15.155 9.3749 15.1536 10.0893 15.155C10.73 15.1564 10.986 15.4059 10.9867 16.035C10.9889 17.4869 10.9889 18.9388 10.9867 20.3906C10.986 21.0047 10.7279 21.2685 10.1243 21.2699C8.6598 21.2728 7.19599 21.2728 5.73147 21.2699C5.12721 21.2692 4.87049 21.0054 4.86977 20.3906C4.86763 18.9388 4.86763 17.4869 4.86977 16.035C4.8712 15.4066 5.12721 15.1572 5.76794 15.155C6.49376 15.1529 7.22031 15.155 7.94613 15.155ZM6.28424 19.8502H9.5594V16.5769H6.28424V19.8502Z" fill="white"/>
<path d="M38.5896 18.216C38.5896 18.9538 38.5932 19.6915 38.5889 20.4299C38.5853 20.9954 38.3193 21.2685 37.7601 21.2699C36.272 21.2742 34.7839 21.2742 33.2957 21.2699C32.753 21.2685 32.4762 20.9961 32.4741 20.4592C32.4691 18.9595 32.4691 17.4604 32.4741 15.9606C32.4755 15.4417 32.7523 15.1593 33.2657 15.1579C34.7774 15.1521 36.2899 15.1521 37.8016 15.1579C38.3129 15.16 38.5839 15.4438 38.5882 15.9664C38.5946 16.7162 38.5896 17.4661 38.5896 18.216ZM37.1723 16.5783H33.9021V19.8473H37.1723V16.5783Z" fill="white"/>
<path d="M10.9868 45.6816C10.9868 46.3958 10.9883 47.1099 10.9868 47.8241C10.9847 48.4632 10.7344 48.7205 10.1065 48.7212C8.65418 48.7234 7.20181 48.7234 5.74944 48.7212C5.13374 48.7205 4.87202 48.4646 4.87058 47.8591C4.86701 46.3951 4.86772 44.9318 4.87058 43.4677C4.8713 42.878 5.13446 42.6077 5.7144 42.607C7.19037 42.6042 8.66705 42.6035 10.143 42.607C10.7265 42.6085 10.984 42.8751 10.9868 43.4677C10.9904 44.2055 10.9875 44.9432 10.9875 45.6809L10.9868 45.6816ZM9.56593 47.3065V44.0325H6.29006V47.3065H9.56593Z" fill="white"/>
<path d="M10.9867 27.3662C10.9867 28.1039 10.9903 28.8416 10.986 29.5801C10.9824 30.147 10.7178 30.4186 10.1579 30.42C8.6698 30.4243 7.18167 30.4243 5.69355 30.42C5.15079 30.4186 4.87333 30.1462 4.87119 29.6101C4.86618 28.1103 4.86618 26.6113 4.87119 25.1115C4.87262 24.5911 5.14793 24.3101 5.66209 24.308C7.17381 24.3023 8.68624 24.3023 10.198 24.308C10.71 24.3101 10.9803 24.5932 10.9846 25.1165C10.991 25.8664 10.986 26.6163 10.986 27.3662H10.9867ZM6.29209 25.722V28.9932H9.56367V25.722H6.29209Z" fill="white"/>
<path d="M7.90964 39.5724C7.19526 39.5724 6.48088 39.5738 5.76649 39.5724C5.12576 39.5709 4.86976 39.3215 4.86904 38.6917C4.8669 37.2398 4.8669 35.7879 4.86904 34.336C4.86976 33.7205 5.12648 33.4582 5.73074 33.4575C7.19526 33.4546 8.65907 33.4546 10.1236 33.4575C10.7279 33.4582 10.9846 33.7212 10.986 34.3367C10.9881 35.7886 10.9881 37.2405 10.986 38.6924C10.9846 39.32 10.7271 39.5702 10.0878 39.5724C9.36201 39.5745 8.63547 39.5724 7.90964 39.5724ZM9.56367 38.1555V34.885H6.29209V38.1555H9.56367Z" fill="white"/>
<path d="M13.6462 9.57907C16.2427 9.57907 18.8385 9.57907 21.435 9.57907C21.5423 9.57907 21.6503 9.57335 21.7561 9.58479C22.1466 9.62696 22.4347 9.93578 22.424 10.2932C22.414 10.6413 22.1366 10.9301 21.7611 10.9709C21.6317 10.9852 21.4994 10.9773 21.3685 10.9773C16.1998 10.9773 11.0311 10.9773 5.86231 10.9773C5.21801 10.9773 4.86046 10.7193 4.87261 10.2625C4.88477 9.8164 5.22802 9.57835 5.85659 9.57835C8.45312 9.57835 11.0489 9.57835 13.6455 9.57835L13.6462 9.57907Z" fill="white"/>
<path d="M21.6611 16.6962C19.0645 16.6962 16.4687 16.6962 13.8722 16.6962C13.7649 16.6962 13.657 16.7019 13.5511 16.6905C13.1593 16.6483 12.8739 16.3423 12.8825 15.9821C12.8911 15.6346 13.17 15.3458 13.5447 15.3037C13.6505 15.2922 13.7585 15.2979 13.8658 15.2979C19.0703 15.2979 24.2748 15.2979 29.4793 15.2979C29.5744 15.2979 29.6709 15.2929 29.7646 15.3029C30.1529 15.3444 30.4411 15.6525 30.4325 16.0121C30.4239 16.3609 30.1464 16.6483 29.7703 16.6898C29.6645 16.7012 29.5565 16.6955 29.4492 16.6955C26.8527 16.6955 24.2569 16.6955 21.6604 16.6955L21.6611 16.6962Z" fill="white"/>
<path d="M21.6618 24.4482C24.2584 24.4482 26.8542 24.4482 29.4507 24.4482C29.558 24.4482 29.6659 24.4425 29.7718 24.4539C30.1465 24.4968 30.4254 24.7863 30.4332 25.133C30.4411 25.4926 30.1551 25.7986 29.7639 25.84C29.6459 25.8522 29.5258 25.8458 29.4071 25.8458C24.2262 25.8458 19.046 25.8458 13.8651 25.8458C13.238 25.8458 12.8926 25.6048 12.8826 25.1602C12.8718 24.7034 13.228 24.4475 13.8737 24.4475C16.4702 24.4475 19.066 24.4475 21.6626 24.4475L21.6618 24.4482Z" fill="white"/>
<path d="M21.0819 34.9966C18.6763 34.9966 16.2707 34.9966 13.8651 34.9966C13.7578 34.9966 13.6498 35.0023 13.544 34.9909C13.1693 34.9487 12.8918 34.6599 12.8825 34.3117C12.8732 33.9522 13.16 33.6462 13.5512 33.604C13.6456 33.594 13.7414 33.599 13.8365 33.599C18.672 33.599 23.5068 33.599 28.3423 33.599C28.4374 33.599 28.5339 33.594 28.6276 33.604C29.0016 33.6455 29.2791 33.9343 29.2884 34.2839C29.2977 34.6427 29.0102 34.9501 28.6197 34.9909C28.5139 35.0023 28.4059 34.9959 28.2987 34.9959C25.8931 34.9959 23.4875 34.9959 21.0819 34.9959V34.9966Z" fill="white"/>
<path d="M19.2962 36.8874C21.1655 36.8874 23.0347 36.8839 24.904 36.8896C25.5447 36.8917 25.9094 37.445 25.6069 37.939C25.4396 38.2121 25.1764 38.2879 24.8718 38.2871C23.8356 38.2828 22.8002 38.2857 21.764 38.2857C19.1446 38.2857 16.5252 38.2857 13.9058 38.2857C13.8107 38.2857 13.7148 38.2893 13.6197 38.2836C13.1828 38.2593 12.871 37.9569 12.8817 37.5701C12.8925 37.1955 13.1957 36.901 13.6161 36.8917C14.1632 36.8789 14.7117 36.8874 15.2594 36.8874C16.6045 36.8874 17.9504 36.8874 19.2955 36.8874H19.2962Z" fill="white"/>
<path d="M19.3255 18.5871C21.1354 18.5871 22.9453 18.5871 24.7552 18.5871C24.8625 18.5871 24.9705 18.5807 25.0763 18.5942C25.4453 18.6436 25.7192 18.9495 25.7135 19.2955C25.7085 19.6286 25.446 19.9203 25.092 19.9739C24.9869 19.9896 24.8782 19.9839 24.771 19.9839C21.1275 19.9839 17.4841 19.9846 13.8407 19.9846C13.8285 19.9846 13.8171 19.9846 13.8049 19.9846C13.2228 19.9825 12.8739 19.7144 12.8817 19.2755C12.8896 18.8459 13.2278 18.5871 13.7885 18.5864C14.9198 18.5849 16.051 18.5864 17.1816 18.5864C17.896 18.5864 18.6104 18.5864 19.3248 18.5864L19.3255 18.5871Z" fill="white"/>
<path d="M18.7999 42.7486C20.5026 42.7486 22.2052 42.7464 23.9071 42.75C24.3777 42.7507 24.7016 43.0338 24.7123 43.432C24.7238 43.8402 24.3884 44.1361 23.9021 44.1461C23.8306 44.1476 23.7591 44.1461 23.6876 44.1461C21.0446 44.1461 18.4016 44.1461 15.7586 44.1461C15.0442 44.1461 14.3298 44.1547 13.6154 44.1418C13.1935 44.134 12.8917 43.838 12.8817 43.4627C12.871 43.0774 13.1849 42.7729 13.6204 42.75C13.7391 42.7436 13.8586 42.7479 13.9773 42.7479C15.5848 42.7479 17.1916 42.7479 18.7992 42.7479L18.7999 42.7486Z" fill="white"/>
<path d="M16.5095 46.0376C17.4613 46.0376 18.4131 46.0291 19.3649 46.0405C19.9641 46.0476 20.3389 46.5974 20.0321 47.0506C19.9062 47.2365 19.6166 47.4145 19.3985 47.418C17.4713 47.4466 15.5434 47.4395 13.6162 47.4309C13.1829 47.4287 12.8689 47.1021 12.8811 46.7175C12.8932 46.3436 13.1972 46.0462 13.6176 46.0412C14.5816 46.0305 15.5448 46.0376 16.5088 46.0376H16.5095Z" fill="white"/>
<path d="M40.0434 53.307C40.0492 45.9926 45.9595 40.095 53.2764 40.1014C60.5575 40.1079 66.4935 46.0498 66.4778 53.3156C66.4621 60.6308 60.521 66.5376 53.1927 66.5255C45.9351 66.5133 40.037 60.5843 40.0427 53.307H40.0434ZM53.2592 41.494C46.7325 41.4826 41.4779 46.7182 41.4243 53.2877C41.3707 59.7858 46.6939 65.1194 53.2456 65.1315C59.7452 65.1437 65.0619 59.8787 65.0805 53.4114C65.0998 46.8054 59.8431 41.5061 53.2599 41.494H53.2592Z" fill="white"/>
<path d="M52.4947 48.4503C52.4947 46.8661 52.4961 45.2827 52.4947 43.6986C52.4947 43.3898 52.5827 43.0988 52.8801 42.9966C53.0804 42.9273 53.3543 42.9366 53.5488 43.0195C53.8563 43.1503 53.8963 43.467 53.8956 43.7808C53.892 45.924 53.8942 48.0678 53.8942 50.211C53.8942 50.9966 53.9099 51.7837 53.8856 52.5686C53.877 52.8509 53.9864 52.9911 54.2102 53.129C56.5629 54.5738 58.9106 56.0271 61.259 57.4797C61.6587 57.727 61.8125 58.0001 61.7388 58.3096C61.6208 58.8043 61.1109 59.0073 60.6433 58.7249C59.7973 58.2145 58.9606 57.6898 58.1204 57.1701C56.4199 56.1193 54.723 55.0613 53.016 54.0212C52.6506 53.7988 52.4854 53.5236 52.4897 53.0926C52.504 51.5449 52.4954 49.9965 52.4954 48.4481L52.4947 48.4503Z" fill="white"/>
<path d="M44.2117 54.2928C44.0694 54.2928 43.9257 54.3064 43.7848 54.29C43.4122 54.2478 43.1369 53.954 43.1305 53.608C43.124 53.2663 43.3972 52.9446 43.7655 52.9117C44.0594 52.8853 44.3605 52.8846 44.6544 52.9146C45.0241 52.9518 45.2536 53.2313 45.2572 53.5887C45.2608 53.9619 45.0226 54.2378 44.6386 54.2878C44.4985 54.3057 44.354 54.2907 44.2117 54.2907C44.2117 54.2914 44.2117 54.2921 44.2117 54.2935V54.2928Z" fill="white"/>
<path d="M62.3417 52.9124C62.4955 52.9124 62.6535 52.8916 62.803 52.9166C63.1548 52.9746 63.408 53.2827 63.3994 53.6115C63.3915 53.931 63.1491 54.2377 62.8116 54.2756C62.4955 54.3113 62.1694 54.3121 61.8533 54.277C61.4858 54.2363 61.2677 53.9453 61.2727 53.585C61.2777 53.2312 61.5129 52.9603 61.8791 52.9109C62.0307 52.8909 62.1873 52.9074 62.341 52.9074C62.341 52.9088 62.341 52.9102 62.341 52.9116L62.3417 52.9124Z" fill="white"/>
<path d="M49.6229 61.1797C49.5013 61.5922 49.3061 62.0397 48.9171 62.3514C48.6746 62.5458 48.3707 62.5101 48.1247 62.3071C47.8959 62.1183 47.7786 61.8596 47.908 61.5772C48.0554 61.2555 48.2277 60.9381 48.4379 60.655C48.6146 60.417 48.8977 60.3691 49.1816 60.4785C49.4662 60.5878 49.6043 60.8087 49.6221 61.1797H49.6229Z" fill="white"/>
<path d="M53.9585 62.6623C53.9585 62.8046 53.9735 62.949 53.9557 63.0891C53.9092 63.4587 53.606 63.7318 53.2613 63.7296C52.918 63.7275 52.6106 63.4516 52.5762 63.0813C52.5526 62.8225 52.5576 62.5594 52.5705 62.2985C52.5927 61.871 52.8708 61.6022 53.2692 61.6036C53.6653 61.6051 53.9349 61.876 53.9614 62.3064C53.9685 62.4243 53.9628 62.5437 53.9628 62.6623C53.9614 62.6623 53.9599 62.6623 53.9578 62.6623H53.9585Z" fill="white"/>
<path d="M57.8844 44.7388C58.4522 44.7466 58.7883 45.1856 58.6174 45.6216C58.4937 45.9376 58.3114 46.2371 58.1161 46.5166C57.9338 46.7775 57.5576 46.8369 57.2795 46.686C56.9834 46.5252 56.8239 46.2428 56.9391 45.9426C57.08 45.5737 57.3052 45.2306 57.5355 44.906C57.6156 44.7931 57.8194 44.7681 57.8837 44.7388H57.8844Z" fill="white"/>
<path d="M45.6556 49.95C45.2687 49.8263 44.8175 49.639 44.5086 49.2487C44.3162 49.0057 44.3527 48.704 44.5543 48.4581C44.7431 48.2286 45.0034 48.1171 45.2837 48.2443C45.6048 48.3902 45.9209 48.5632 46.2048 48.7712C46.4501 48.9499 46.4765 49.2423 46.375 49.5168C46.2713 49.797 46.051 49.9457 45.6556 49.9493V49.95Z" fill="white"/>
<path d="M57.5612 60.4227C58.1611 60.437 58.2813 60.9146 58.5115 61.2727C58.6889 61.5486 58.769 61.8339 58.5752 62.1377C58.3199 62.5373 57.7421 62.5737 57.4575 62.1849C57.2694 61.9289 57.1092 61.6451 56.9834 61.3535C56.7967 60.921 57.1386 60.4327 57.5619 60.4227H57.5612Z" fill="white"/>
<path d="M46.4386 57.9628C46.4264 58.5197 45.2973 59.1952 44.796 58.9465C44.3534 58.7263 44.2554 58.1265 44.6437 57.822C44.9104 57.6125 45.2186 57.4403 45.5319 57.3087C45.9652 57.1271 46.4486 57.4953 46.4386 57.9628Z" fill="white"/>
<path d="M48.9206 46.7875C48.3314 46.7789 47.6649 45.6394 47.9481 45.1254C48.1819 44.7015 48.7883 44.6408 49.0822 45.0354C49.2717 45.2892 49.4326 45.5737 49.5549 45.866C49.7366 46.2992 49.379 46.7946 48.9199 46.7875H48.9206Z" fill="white"/>
<path d="M60.0834 49.3045C60.1041 48.7297 60.5432 48.6025 60.8886 48.3852C61.1639 48.2122 61.4421 48.1057 61.756 48.2915C62.1786 48.5417 62.2194 49.1336 61.8132 49.4324C61.5751 49.6076 61.3126 49.7577 61.0423 49.8771C60.5918 50.0765 60.0834 49.7312 60.0834 49.3052V49.3045Z" fill="white"/>
</svg>
